<?xml version="1.0" encoding="utf-8"?>
<!-- Generator: Adobe Illustrator 24.1.3, SVG Export Plug-In . SVG Version: 6.00 Build 0)  -->
<svg version="1.1" id="Layer_1" xmlns="http://www.w3.org/2000/svg" xmlns:xlink="http://www.w3.org/1999/xlink" x="0px" y="0px"
	 viewBox="0 0 512 512" style="enable-background:new 0 0 512 512;" xml:space="preserve">
<style type="text/css">
	.st0{fill:#F30002;}
	.st1{fill:#FFFFFF;}
</style>
<g>
	<g>
		<circle class="st0" cx="256" cy="256" r="216"/>
	</g>
	<g>
		<path class="st1" d="M502.4,102.8c-0.5,0-2.8,0.8-5.3,1.9c-7,3-19.9,6.6-33.7,9.6c-7.6,1.6-15.5,3.1-22.7,4.1
			c-5.7,0.8-51.3,5.7-73.9,7.1c-78.6,4.9-198.1,3.5-262.8-3.2c-6.8-0.7-35.7-3.9-55.3-7.9c-0.4-0.1-0.8-0.2-1.2-0.3
			c-11.2-2.4-29.3-7.6-36.9-10.7c-1.4-0.6-1.4-0.3,0.1,4.8c1.4,4.8,2,5.6,5.7,7.3c4.1,1.9,4.2,2.4,10.4,16.1l5,11.4l0.6,1.3
			c0.4,0.9,1.3,1.6,2.3,1.6l2.3,0.2c3.7,0.3,4,0.5,4,3.1c0,1.9,0.5,2.7,1.5,2.7c1.1,0,1.4-0.6,1-2c-0.4-1.4,0-2.2,1.2-2.4
			c0.9-0.3,2-1.1,2.2-2.1c0.2-0.8,0.7,0.7,1.1,3.4l0.4,2.7c0.2,1.3,1.2,2.2,2.5,2.4l2.7,0.3c2.6,0.4,6.4,0.7,8.5,0.8l1.7,0.1
			c1.2,0.1,2.2,0.9,2.5,2l2.2,7.6l2.3,7.7c0.3,1.1,1.3,1.9,2.4,2l5.3,0.5c4.1,0.4,17.6,0.8,30.3,1.1c12.7,0.2,25.7,0.7,28.9,0.9
			l3.5,0.3c1.4,0.1,2.4,1.2,2.5,2.6l0.1,2.1c0.3,3.8,0.6,4.4,2.6,4.9c2.1,0.5,2.4,1,2.4,4.7v3c0,0.8-0.3,1.5-0.9,2
			c-2.1,2-6.6,6.6-9.7,9.3c-1.6,1.4-3.7,2.2-5.8,2.3c-11,0.5-47.8-0.3-60.5-2.1c-3.1-0.4-3.6-0.2-3.6,1.3c0,0.9,0.7,2,1.4,2.3
			c1,0.5,1.4,2.8,1.6,10.3l0.2,7.2c0,1.4,1.1,2.6,2.5,2.7c0,0,28.3,1.4,44.1,1.6l26,0.4c1.5,0,2.7,1.2,2.7,2.7l0.3,88.2l0.2,72.5
			v87.4c8.9,4.3,18,8,27.4,11.2v-98.6l-0.2-36.6c-0.2-32.9-0.7-46.9-1.4-48.7c-0.6-1.3-2.3-3.6-3.8-4.9l-1.8-1.6
			c-0.6-0.5-0.9-1.2-0.9-2l-0.4-33.2c-0.1-18.9,0-35,0.3-35.8c0.5-1.2,11.4-1.4,89.8-1.2l86.5,0.3c1.5,0,2.7,1.2,2.7,2.8l-0.2,33
			l-0.3,34.5c0,0.8-0.3,1.5-0.9,2l-1.3,1.2c-4.9,4.1-4.8,3-5.1,57.6l-0.2,32.6v98.5c9.4-3.2,18.5-6.9,27.3-11.2v-87.4l-0.1-44.4
			c-0.1-39.7-0.2-82.9-0.3-95.8l-0.1-20.8c0-1.5,1.2-2.8,2.7-2.8l17-0.1c11.8-0.1,29.1-0.4,38.8-0.8c6.5-0.3,12.4-0.6,15.4-0.9
			c1.3-0.1,2.3-1.2,2.5-2.5c0.2-1.8,0.3-4.6,0.3-7.7c0-7.4,0.3-9.5,1.4-9.9c0.8-0.4,1.4-1.4,1.4-2.4c0-1.6-0.5-1.8-3.5-1.3
			c-5.8,0.8-28,2.4-45,2.9c-13.4,0.5-16.3,0.4-17.9-0.8c-1.3-0.9-8.1-6.5-11.9-9.7c-1.7-1.4-2.7-3.5-2.7-5.7v-0.8
			c0-3.7,0.4-4.4,2.3-5.1c2.4-0.9,3.4-2.8,3.4-6.2c0-0.5,0.1-1.1,0.3-1.6c0.3-1,1.2-1.7,2.2-1.8c3.6-0.4,14.2-0.9,27.6-1.2
			c30.8-0.6,41.2-1.3,42.1-2.7c0.4-0.6,1.7-4.8,3.1-9.5l1.9-6.7c0.3-1.1,1.3-1.9,2.5-2l5.5-0.3c8.8-0.6,9.9-1.1,10-4.5
			c0.1-3,1.6-7.3,1.7-4.8c0.1,0.8,0.9,1.8,1.9,2.1c1.3,0.3,1.7,1,1.3,2.4c-0.4,1.4-0.1,2,1,2c1,0,1.5-0.8,1.5-2.7
			c0-2.6,0.3-2.8,4-3.1l2.3-0.2c1-0.1,1.9-0.7,2.3-1.6l0.5-1.1l5-11.5c5.9-13.7,6.3-14.2,10.1-15.9c3.5-1.6,4.1-2.4,5.8-7.3
			C502.4,105.2,502.8,102.8,502.4,102.8z M242.8,205.8c-0.5,1.3-4.2,1.5-32.5,1.5c-18.5,0-26.7-0.3-30.7-0.8
			c-0.8-0.1-1.6-0.4-2.2-0.9c-3.9-3.3-9.2-9.9-9.6-13.5c-0.2-2.5,0.1-4.3,0.8-5c3.5-2.8,4.1-3.8,4.1-6.8v-0.5c0-1.5,1.2-2.8,2.8-2.8
			h32c30.8,0,34.9,0.2,35.3,1.5C243.5,180.6,243.5,203.9,242.8,205.8z M344.6,194.1c-0.1,0.5-0.3,0.9-0.7,1.3
			c-1.5,1.6-5.2,5.8-7.8,8.6c-1.7,1.8-3.9,2.9-6.3,3.2c-4.8,0.5-12.5,0.2-28.1,0.2h-29.8c-1.3,0-2.4-0.9-2.7-2.2
			c-0.3-1.1-0.4-7.8-0.3-14.8l0.2-10.1c0-1.5,1.2-2.7,2.7-2.7l31.7-0.4c15.4-0.2,28.7-0.3,33.4-0.3c1.3,0,2.4,1.1,2.4,2.4
			c0,0,0,0,0,0c0,3.7,1,6.1,2.8,6.6C343.7,186.3,345.1,191.3,344.6,194.1z"/>
	</g>
</g>
</svg>
